<?xml version="1.0" encoding="utf-8"?>
<!-- Generator: Adobe Illustrator 20.0.0, SVG Export Plug-In . SVG Version: 6.00 Build 0)  -->
<svg version="1.1" id="Layer_1" xmlns="http://www.w3.org/2000/svg" xmlns:xlink="http://www.w3.org/1999/xlink" x="0px" y="0px"
	 viewBox="0 0 100 100" style="enable-background:new 0 0 100 100;" xml:space="preserve">
<style type="text/css">
	.st0{fill:#D9E021;}
	.st1{fill:#e1e494;}
</style>
<rect class="st0" width="3.6" height="100"/>
<rect x="3.6" class="st1" width="3.6" height="100"/>
<rect x="7.1" class="st0" width="3.6" height="100"/>
<rect x="10.7" class="st1" width="3.6" height="100"/>
<rect x="14.3" class="st0" width="3.6" height="100"/>
<rect x="17.9" class="st1" width="3.6" height="100"/>
<rect x="21.4" class="st0" width="3.6" height="100"/>
<rect x="25" class="st1" width="3.6" height="100"/>
<rect x="28.6" class="st0" width="3.6" height="100"/>
<rect x="32.1" class="st1" width="3.6" height="100"/>
<rect x="35.7" class="st0" width="3.6" height="100"/>
<rect x="39.3" class="st1" width="3.6" height="100"/>
<rect x="42.9" class="st0" width="3.6" height="100"/>
<rect x="46.4" class="st1" width="3.6" height="100"/>
<rect x="50" class="st0" width="3.6" height="100"/>
<rect x="53.6" class="st1" width="3.6" height="100"/>
<rect x="57.1" class="st0" width="3.6" height="100"/>
<rect x="60.7" class="st1" width="3.6" height="100"/>
<rect x="64.3" class="st0" width="3.6" height="100"/>
<rect x="67.9" class="st1" width="3.6" height="100"/>
<rect x="71.4" class="st0" width="3.6" height="100"/>
<rect x="75" class="st1" width="3.6" height="100"/>
<rect x="78.6" class="st0" width="3.6" height="100"/>
<rect x="82.1" class="st1" width="3.6" height="100"/>
<rect x="85.7" class="st0" width="3.6" height="100"/>
<rect x="89.3" class="st1" width="3.6" height="100"/>
<rect x="92.9" class="st0" width="3.6" height="100"/>
<rect x="96.4" class="st1" width="3.6" height="100"/>
</svg>
